<?xml version="1.0" standalone="no"?>
<!DOCTYPE svg PUBLIC "-//W3C//DTD SVG 20010904//EN"
 "http://www.w3.org/TR/2001/REC-SVG-20010904/DTD/svg10.dtd">
<svg version="1.0" xmlns="http://www.w3.org/2000/svg"
 width="700.000000pt" height="700.000000pt" viewBox="0 0 700.000000 700.000000"
 preserveAspectRatio="xMidYMid meet">
<metadata>
Created by potrace 1.11, written by Peter Selinger 2001-2013
</metadata>
<g transform="translate(0.000000,700.000000) scale(0.100000,-0.100000)"
fill="#000000" stroke="none">
<path d="M3265 6130 c-240 -25 -293 -34 -455 -76 -696 -183 -1278 -646 -1628
-1294 -101 -188 -212 -502 -246 -700 -3 -19 -8 -46 -11 -60 -3 -14 -7 -43 -10
-65 -3 -22 -8 -56 -12 -75 -12 -73 -11 -505 2 -600 58 -425 182 -766 399
-1100 100 -154 189 -262 341 -415 98 -98 119 -118 220 -201 141 -116 456 -301
620 -364 159 -61 259 -93 353 -115 76 -18 163 -36 192 -41 19 -2 44 -7 55 -9
128 -27 602 -27 743 0 11 2 37 6 58 10 85 13 102 16 184 36 349 84 714 263
995 488 75 61 72 58 166 147 157 150 342 374 415 504 11 18 24 40 29 49 130
207 267 559 309 796 3 17 8 39 10 50 4 21 12 73 21 135 30 199 24 564 -11 744
-8 42 -25 131 -30 156 -58 293 -233 679 -432 950 -108 147 -293 346 -414 446
-33 27 -70 57 -82 68 -11 10 -84 60 -161 111 -155 104 -318 190 -470 249 -55
21 -109 42 -120 47 -99 41 -371 100 -573 125 -69 8 -387 11 -457 4z"/>
</g>
</svg>
